<svg width="277" height="127" viewBox="0 0 277 127" fill="none" xmlns="http://www.w3.org/2000/svg">
<path d="M3.85423 6.69127C3.30784 6.77177 2.93017 7.27997 3.01068 7.82636C3.09119 8.37274 3.59938 8.75041 4.14577 8.66991L3.85423 6.69127ZM264.684 122.949C265.208 123.123 265.774 122.84 265.949 122.316L268.791 113.776C268.966 113.252 268.682 112.686 268.158 112.512C267.634 112.337 267.068 112.621 266.893 113.145L264.367 120.735L256.776 118.209C256.252 118.034 255.686 118.318 255.512 118.842C255.337 119.366 255.621 119.932 256.145 120.107L264.684 122.949ZM10.9394 7.78025C11.4881 7.71692 11.8815 7.22081 11.8182 6.67217C11.7548 6.12353 11.2587 5.73011 10.7101 5.79344L10.9394 7.78025ZM24.5122 4.5799C23.961 4.61419 23.542 5.08883 23.5762 5.64005C23.6105 6.19127 24.0852 6.61033 24.6364 6.57604L24.5122 4.5799ZM38.3948 6.04182C38.947 6.03284 39.3874 5.57791 39.3784 5.02569C39.3694 4.47348 38.9145 4.0331 38.3623 4.04208L38.3948 6.04182ZM52.1844 4.11403C51.6323 4.09949 51.1729 4.53526 51.1584 5.08736C51.1438 5.63945 51.5796 6.0988 52.1317 6.11334L52.1844 4.11403ZM65.8847 6.76168C66.4357 6.79909 66.9127 6.38273 66.9501 5.83171C66.9875 5.28069 66.5712 4.80368 66.0201 4.76627L65.8847 6.76168ZM79.8204 5.99027C79.2714 5.93008 78.7775 6.32633 78.7173 6.87533C78.6571 7.42432 79.0534 7.91817 79.6024 7.97836L79.8204 5.99027ZM93.2414 9.76406C93.7873 9.84733 94.2974 9.47224 94.3807 8.92627C94.464 8.3803 94.0889 7.8702 93.5429 7.78693L93.2414 9.76406ZM107.191 10.1719C106.649 10.0649 106.123 10.4174 106.016 10.9593C105.909 11.5011 106.261 12.027 106.803 12.134L107.191 10.1719ZM120.236 15.1025C120.773 15.234 121.314 14.9058 121.446 14.3694C121.577 13.833 121.249 13.2916 120.712 13.1601L120.236 15.1025ZM134.083 16.7757C133.553 16.6188 132.997 16.9207 132.84 17.4502C132.683 17.9798 132.985 18.5363 133.514 18.6932L134.083 16.7757ZM146.605 22.9336C147.126 23.1172 147.697 22.8437 147.88 22.3228C148.064 21.8019 147.79 21.2309 147.27 21.0473L146.605 22.9336ZM160.206 25.9951C159.696 25.784 159.111 26.0265 158.9 26.5368C158.688 27.0471 158.931 27.632 159.441 27.8432L160.206 25.9951ZM171.993 33.4558C172.491 33.6956 173.088 33.4867 173.328 32.9892C173.568 32.4917 173.359 31.894 172.862 31.6542L171.993 33.4558ZM185.164 38.0436C184.682 37.7742 184.073 37.9468 183.803 38.4289C183.534 38.9111 183.706 39.5203 184.189 39.7896L185.164 38.0436ZM195.963 46.8618C196.427 47.1612 197.046 47.0277 197.345 46.5637C197.644 46.0996 197.511 45.4807 197.047 45.1812L195.963 46.8618ZM208.449 53.0842C208.006 52.7545 207.379 52.8464 207.049 53.2895C206.72 53.7326 206.812 54.359 207.255 54.6887L208.449 53.0842ZM217.98 63.2611C218.399 63.6207 219.03 63.5726 219.39 63.1535C219.75 62.7344 219.702 62.1031 219.283 61.7434L217.98 63.2611ZM229.475 71.1427C229.083 70.7539 228.45 70.7567 228.061 71.149C227.672 71.5413 227.675 72.1744 228.067 72.5632L229.475 71.1427ZM237.461 82.5776C237.824 82.994 238.456 83.0373 238.872 82.6745C239.288 82.3117 239.332 81.68 238.969 81.2636L237.461 82.5776ZM247.704 92.0651C247.373 91.6232 246.746 91.5335 246.304 91.8647C245.862 92.196 245.772 92.8228 246.104 93.2647L247.704 92.0651ZM253.919 104.525C254.218 104.99 254.836 105.125 255.301 104.827C255.766 104.529 255.901 103.91 255.603 103.445L253.919 104.525ZM262.664 115.371C262.4 114.886 261.792 114.708 261.307 114.972C260.823 115.236 260.644 115.844 260.908 116.329L262.664 115.371ZM4.14577 8.66991C6.31973 8.34959 8.58649 8.05186 10.9394 7.78025L10.7101 5.79344C8.33717 6.06736 6.04966 6.36778 3.85423 6.69127L4.14577 8.66991ZM24.6364 6.57604C29.0293 6.30277 33.6256 6.11935 38.3948 6.04182L38.3623 4.04208C33.5628 4.1201 28.9359 4.30471 24.5122 4.5799L24.6364 6.57604ZM52.1317 6.11334C56.6103 6.23131 61.2016 6.44374 65.8847 6.76168L66.0201 4.76627C61.309 4.44643 56.6901 4.23272 52.1844 4.11403L52.1317 6.11334ZM79.6024 7.97836C84.0929 8.47071 88.6448 9.06301 93.2414 9.76406L93.5429 7.78693C88.9178 7.08152 84.338 6.4856 79.8204 5.99027L79.6024 7.97836ZM106.803 12.134C111.26 13.014 115.743 14.001 120.236 15.1025L120.712 13.1601C116.188 12.051 111.676 11.0576 107.191 10.1719L106.803 12.134ZM133.514 18.6932C137.886 19.9892 142.254 21.4004 146.605 22.9336L147.27 21.0473C142.885 19.5025 138.485 18.081 134.083 16.7757L133.514 18.6932ZM159.441 27.8432C163.658 29.5881 167.846 31.4568 171.993 33.4558L172.862 31.6542C168.679 29.6382 164.457 27.754 160.206 25.9951L159.441 27.8432ZM184.189 39.7896C188.169 42.013 192.098 44.3683 195.963 46.8618L197.047 45.1812C193.145 42.6641 189.18 40.287 185.164 38.0436L184.189 39.7896ZM207.255 54.6887C210.906 57.4057 214.485 60.2612 217.98 63.2611L219.283 61.7434C215.751 58.7126 212.136 55.8282 208.449 53.0842L207.255 54.6887ZM228.067 72.5632C231.291 75.7579 234.425 79.0942 237.461 82.5776L238.969 81.2636C235.901 77.7429 232.733 74.3711 229.475 71.1427L228.067 72.5632ZM246.104 93.2647C248.811 96.8771 251.42 100.629 253.919 104.525L255.603 103.445C253.077 99.508 250.441 95.7162 247.704 92.0651L246.104 93.2647ZM260.908 116.329C262.001 118.334 263.067 120.373 264.106 122.448L265.894 121.552C264.846 119.457 263.768 117.397 262.664 115.371L260.908 116.329Z" fill="white"/>
</svg>
