<svg width="266" height="119" viewBox="0 0 266 119" fill="none" xmlns="http://www.w3.org/2000/svg">
<path d="M264.988 2.64928C265.535 2.72978 265.912 3.23798 265.832 3.78436C265.751 4.33075 265.243 4.70842 264.697 4.62791L264.988 2.64928ZM4.15839 118.907C3.63437 119.081 3.06818 118.798 2.89377 118.274L0.0514526 109.734C-0.122955 109.21 0.160461 108.644 0.684479 108.47C1.2085 108.295 1.77469 108.579 1.9491 109.103L4.47559 116.693L12.0662 114.167C12.5902 113.992 13.1564 114.276 13.3308 114.8C13.5052 115.324 13.2218 115.89 12.6978 116.065L4.15839 118.907ZM257.903 3.73826C257.355 3.67492 256.961 3.17882 257.024 2.63018C257.088 2.08154 257.584 1.68812 258.133 1.75145L257.903 3.73826ZM244.33 0.537903C244.882 0.572194 245.301 1.04684 245.266 1.59806C245.232 2.14928 244.757 2.56833 244.206 2.53404L244.33 0.537903ZM230.448 1.99982C229.896 1.99085 229.455 1.53591 229.464 0.983702C229.473 0.431491 229.928 -0.00888836 230.48 8.84533e-05L230.448 1.99982ZM216.658 0.0720426C217.21 0.0575003 217.67 0.493271 217.684 1.04536C217.699 1.59746 217.263 2.05681 216.711 2.07135L216.658 0.0720426ZM202.958 2.71969C202.407 2.7571 201.93 2.34073 201.892 1.78972C201.855 1.2387 202.271 0.761689 202.822 0.724279L202.958 2.71969ZM189.022 1.94828C189.571 1.88809 190.065 2.28434 190.125 2.83333C190.185 3.38233 189.789 3.87617 189.24 3.93637L189.022 1.94828ZM175.601 5.72207C175.055 5.80534 174.545 5.43025 174.462 4.88428C174.379 4.33831 174.754 3.82821 175.3 3.74493L175.601 5.72207ZM161.652 6.12991C162.194 6.02293 162.72 6.37544 162.827 6.91727C162.934 7.45909 162.581 7.98505 162.039 8.09203L161.652 6.12991ZM148.606 11.0606C148.07 11.192 147.529 10.8638 147.397 10.3274C147.266 9.79101 147.594 9.24957 148.13 9.11807L148.606 11.0606ZM134.76 12.7338C135.289 12.5768 135.846 12.8788 136.003 13.4083C136.16 13.9378 135.858 14.4943 135.328 14.6513L134.76 12.7338ZM122.238 18.8916C121.717 19.0752 121.146 18.8017 120.962 18.2808C120.779 17.7599 121.052 17.1889 121.573 17.0053L122.238 18.8916ZM108.637 21.9531C109.147 21.742 109.732 21.9845 109.943 22.4948C110.154 23.0051 109.912 23.59 109.401 23.8012L108.637 21.9531ZM96.8495 29.4138C96.352 29.6536 95.7543 29.4447 95.5145 28.9472C95.2747 28.4497 95.4836 27.852 95.9811 27.6122L96.8495 29.4138ZM83.6786 34.0016C84.1608 33.7323 84.77 33.9048 85.0393 34.387C85.3087 34.8691 85.1361 35.4783 84.654 35.7476L83.6786 34.0016ZM72.8801 42.8198C72.416 43.1193 71.7971 42.9858 71.4977 42.5217C71.1982 42.0576 71.3317 41.4387 71.7958 41.1392L72.8801 42.8198ZM60.394 49.0422C60.8371 48.7125 61.4635 48.8044 61.7932 49.2475C62.1229 49.6906 62.031 50.317 61.588 50.6468L60.394 49.0422ZM50.8626 59.2191C50.4435 59.5788 49.8121 59.5306 49.4524 59.1115C49.0928 58.6924 49.1409 58.0611 49.56 57.7014L50.8626 59.2191ZM39.3675 67.1007C39.7597 66.7119 40.3929 66.7148 40.7817 67.107C41.1704 67.4993 41.1676 68.1325 40.7753 68.5212L39.3675 67.1007ZM31.3816 78.5356C31.0188 78.952 30.3871 78.9954 29.9707 78.6325C29.5543 78.2697 29.5109 77.638 29.8738 77.2216L31.3816 78.5356ZM21.1387 88.0231C21.47 87.5812 22.0968 87.4915 22.5387 87.8227C22.9806 88.154 23.0703 88.7808 22.739 89.2227L21.1387 88.0231ZM14.9233 100.483C14.6251 100.948 14.0065 101.083 13.5416 100.785C13.0768 100.487 12.9417 99.8682 13.24 99.4034L14.9233 100.483ZM6.17844 111.329C6.44278 110.844 7.05017 110.666 7.5351 110.93C8.01999 111.194 8.19879 111.802 7.93445 112.287L6.17844 111.329ZM264.697 4.62791C262.523 4.30759 260.256 4.00986 257.903 3.73826L258.133 1.75145C260.505 2.02536 262.793 2.32579 264.988 2.64928L264.697 4.62791ZM244.206 2.53404C239.813 2.26077 235.217 2.07735 230.448 1.99982L230.48 8.84533e-05C235.28 0.0781096 239.907 0.262716 244.33 0.537903L244.206 2.53404ZM216.711 2.07135C212.232 2.18932 207.641 2.40174 202.958 2.71969L202.822 0.724279C207.534 0.404434 212.153 0.190725 216.658 0.0720426L216.711 2.07135ZM189.24 3.93637C184.75 4.42872 180.198 5.02102 175.601 5.72207L175.3 3.74493C179.925 3.03953 184.505 2.44361 189.022 1.94828L189.24 3.93637ZM162.039 8.09203C157.582 8.97203 153.1 9.95898 148.606 11.0606L148.13 9.11807C152.654 8.00905 157.166 7.01559 161.652 6.12991L162.039 8.09203ZM135.328 14.6513C130.957 15.9472 126.589 17.3584 122.238 18.8916L121.573 17.0053C125.957 15.4605 130.357 14.039 134.76 12.7338L135.328 14.6513ZM109.401 23.8012C105.184 25.5461 100.996 27.4148 96.8495 29.4138L95.9811 27.6122C100.163 25.5962 104.386 23.7121 108.637 21.9531L109.401 23.8012ZM84.654 35.7476C80.6736 37.971 76.745 40.3263 72.8801 42.8198L71.7958 41.1392C75.6974 38.6221 79.6624 36.245 83.6786 34.0016L84.654 35.7476ZM61.588 50.6468C57.9368 53.3637 54.358 56.2192 50.8626 59.2191L49.56 57.7014C53.0914 54.6706 56.7066 51.7862 60.394 49.0422L61.588 50.6468ZM40.7753 68.5212C37.5518 71.7159 34.4172 75.0522 31.3816 78.5356L29.8738 77.2216C32.9419 73.7009 36.1099 70.3291 39.3675 67.1007L40.7753 68.5212ZM22.739 89.2227C20.0312 92.8351 17.423 96.5871 14.9233 100.483L13.24 99.4034C15.766 95.466 18.4019 91.6742 21.1387 88.0231L22.739 89.2227ZM7.93445 112.287C6.84131 114.292 5.77512 116.331 4.73682 118.406L2.94836 117.51C3.99707 115.415 5.0741 113.355 6.17844 111.329L7.93445 112.287Z" fill="white"/>
</svg>
