<svg width="18" height="24" viewBox="0 0 18 24" fill="none" xmlns="http://www.w3.org/2000/svg">
<path d="M15 18.75C14.9016 18.7512 14.8041 18.7318 14.7137 18.693C14.6233 18.6543 14.542 18.597 14.475 18.525L2.475 6.52499C2.175 6.22499 2.175 5.75999 2.475 5.45999C2.775 5.15999 3.24 5.15999 3.54 5.45999L15.525 17.475C15.825 17.775 15.825 18.24 15.525 18.54C15.375 18.69 15.18 18.765 15 18.765V18.75Z" fill="white"/>
<path d="M3 18.75C2.90164 18.7512 2.80411 18.7318 2.71369 18.6931C2.62328 18.6543 2.54197 18.5971 2.475 18.525C2.175 18.225 2.175 17.76 2.475 17.46L14.475 5.475C14.775 5.175 15.24 5.175 15.54 5.475C15.84 5.775 15.84 6.24 15.54 6.54L3.525 18.525C3.375 18.675 3.18 18.75 3 18.75Z" fill="white"/>
</svg>
