<svg width="24" height="24" viewBox="0 0 24 24" fill="none" xmlns="http://www.w3.org/2000/svg">
<g clip-path="url(#clip0_104_1257)">
<path d="M1.5 4.32323C1.5 3.64982 1.73649 3.09426 2.20946 2.65656C2.68243 2.21885 3.2973 2 4.05405 2C4.7973 2 5.39864 2.21547 5.85811 2.64646C6.33107 3.09091 6.56757 3.67002 6.56757 4.38383C6.56757 5.0303 6.33784 5.569 5.87838 5.99999C5.40541 6.44444 4.78378 6.66666 4.01351 6.66666H3.99324C3.24999 6.66666 2.64866 6.44444 2.18919 5.99999C1.72972 5.55555 1.5 4.99662 1.5 4.32323ZM1.76351 22V8.50504H6.26351V22H1.76351ZM8.75676 22H13.2568V14.4646C13.2568 13.9932 13.3108 13.6296 13.4189 13.3737C13.6081 12.9158 13.8953 12.5286 14.2804 12.2121C14.6655 11.8956 15.1486 11.7374 15.7297 11.7374C17.2432 11.7374 18 12.7542 18 14.7879V22H22.5V14.2626C22.5 12.2693 22.027 10.7576 21.0811 9.72726C20.1351 8.69696 18.8851 8.18181 17.3311 8.18181C15.5878 8.18181 14.2297 8.92928 13.2568 10.4242V10.4646H13.2365L13.2568 10.4242V8.50504H8.75676C8.78378 8.93601 8.7973 10.2761 8.7973 12.5252C8.7973 14.7744 8.78378 17.9326 8.75676 22Z" fill="white"/>
</g>
<defs>
<clipPath id="clip0_104_1257">
<rect width="21" height="20" fill="white" transform="translate(1.5 2)"/>
</clipPath>
</defs>
</svg>
