<svg width="199" height="69" viewBox="0 0 199 69" fill="none" xmlns="http://www.w3.org/2000/svg">
<g clip-path="url(#clip0_169_783)">
<path fill-rule="evenodd" clip-rule="evenodd" d="M27.6382 14.808C31.1393 14.808 33.9775 17.6547 33.9775 21.1662C33.9775 24.6777 31.1393 27.5243 27.6382 27.5243C24.137 27.5243 21.2988 24.6777 21.2988 21.1662C21.2988 17.6547 24.137 14.808 27.6382 14.808Z" fill="#07DA83"/>
<path fill-rule="evenodd" clip-rule="evenodd" d="M24.3839 9.88411L27.6388 15.5387L33.6905 5.02612L35.0168 5.79051L27.6372 18.611L23.0571 10.6546L24.3839 9.88411Z" fill="#07DA83"/>
<path fill-rule="evenodd" clip-rule="evenodd" d="M23.7205 7.86115C25.0468 7.86115 26.1218 8.93956 26.1218 10.2697C26.1218 11.5999 25.0468 12.6783 23.7205 12.6783C22.3942 12.6783 21.3193 11.5999 21.3193 10.2697C21.3193 8.93956 22.3942 7.86115 23.7205 7.86115Z" fill="#07DA83"/>
<path d="M34.3539 7.81714C35.68 7.81714 36.7551 6.73879 36.7551 5.40857C36.7551 4.07835 35.68 3 34.3539 3C33.0277 3 31.9526 4.07835 31.9526 5.40857C31.9526 6.73879 33.0277 7.81714 34.3539 7.81714Z" fill="#07DA83"/>
<path fill-rule="evenodd" clip-rule="evenodd" d="M49.1129 26.7088V49.4889C49.1129 51.7555 47.1084 53.0627 45.5398 54.3652L29.3795 67.7816C29.0546 68.0513 28.6304 68.1054 28.249 67.9251C27.867 67.7449 27.6381 67.3829 27.6381 66.9601V59.1589C27.6381 58.1846 26.8625 57.386 25.8916 57.36C15.7677 57.0904 6.16333 54.4663 6.16333 49.4889V26.7088C6.16333 16.183 49.1134 16.183 49.1134 26.7088H49.1129Z" fill="#07DA83"/>
<path fill-rule="evenodd" clip-rule="evenodd" d="M43.539 27.4186C43.2091 27.1802 42.7333 26.9335 42.4855 26.8146C41.3223 26.257 40.0047 25.8658 38.7539 25.5656C35.1972 24.7124 31.2892 24.405 27.6381 24.405C23.9871 24.405 20.0791 24.7124 16.5224 25.5656C15.2716 25.8658 13.9539 26.257 12.7908 26.8146C12.543 26.9335 12.0672 27.1796 11.7373 27.4186V48.7792C12.0672 49.0176 12.543 49.2643 12.7908 49.3832C13.9539 49.9408 15.2716 50.3319 16.5224 50.6322C20.0791 51.4854 23.9871 51.7928 27.6381 51.7928C31.2892 51.7928 35.1972 51.4854 38.7539 50.6322C40.0047 50.3319 41.3223 49.9408 42.4855 49.3832C42.7333 49.2643 43.2091 49.0181 43.539 48.7792V27.4186Z" fill="white"/>
<path fill-rule="evenodd" clip-rule="evenodd" d="M20.1465 33.3785C21.8308 33.3785 23.1958 35.492 23.1958 38.0992C23.1958 40.7064 21.8302 42.8198 20.1465 42.8198C18.4627 42.8198 17.0972 40.7064 17.0972 38.0992C17.0972 35.492 18.4622 33.3785 20.1465 33.3785Z" fill="black"/>
<path fill-rule="evenodd" clip-rule="evenodd" d="M35.1299 33.3785C36.8142 33.3785 38.1792 35.492 38.1792 38.0992C38.1792 40.7064 36.8142 42.8198 35.1299 42.8198C33.4456 42.8198 32.0806 40.7064 32.0806 38.0992C32.0806 35.492 33.4456 33.3785 35.1299 33.3785Z" fill="black"/>
<path fill-rule="evenodd" clip-rule="evenodd" d="M3.87743 29.9824H4.87483V46.2148H3.87743C1.74495 46.2148 0 44.465 0 42.326V33.8707C0 31.7318 1.74495 29.9819 3.87743 29.9819V29.9824Z" fill="#07DA83"/>
<path fill-rule="evenodd" clip-rule="evenodd" d="M51.399 29.9824H50.4016V46.2148H51.399C53.5315 46.2148 55.2764 44.465 55.2764 42.326V33.8707C55.2764 31.7318 53.5315 29.9819 51.399 29.9819V29.9824Z" fill="#07DA83"/>
</g>
<path fill-rule="evenodd" clip-rule="evenodd" d="M162.052 31.8164C162.607 32.3529 163.301 32.6211 164.133 32.6211C164.947 32.6211 165.632 32.3529 166.187 31.8164C166.76 31.2615 167.047 30.5771 167.047 29.7632C167.047 28.9678 166.76 28.2926 166.187 27.7377C165.632 27.1828 164.947 26.9053 164.133 26.9053C163.301 26.9053 162.607 27.1828 162.052 27.7377C161.498 28.2742 161.22 28.9493 161.22 29.7632C161.22 30.5956 161.498 31.28 162.052 31.8164ZM166.908 47.4376V34.1194H161.359V47.4376H166.908ZM183.629 26.9329H189.178V35.3122C190.399 34.2394 191.823 33.703 193.451 33.703C195.356 33.703 196.753 34.1931 197.641 35.1735C198.547 36.1354 199 37.4672 199 39.169V47.4374H193.423V39.9459C193.423 39.317 193.284 38.8453 193.007 38.5308C192.748 38.1979 192.322 38.0314 191.731 38.0314C190.621 38.0314 189.77 38.5308 189.178 39.5297V47.4374H183.629V26.9329ZM175.261 47.8537C174.151 47.8537 172.986 47.752 171.765 47.5485C170.562 47.345 169.61 47.049 168.907 46.6606V42.7484C169.665 43.1923 170.59 43.5715 171.682 43.886C172.791 44.1819 173.79 44.3299 174.678 44.3299C175.215 44.3299 175.603 44.3022 175.844 44.2467C176.084 44.1727 176.204 44.0339 176.204 43.8305C176.204 43.6455 176.084 43.5068 175.844 43.4143C175.622 43.3218 175.196 43.1923 174.567 43.0258L173.291 42.6651C172.163 42.3322 171.265 41.9807 170.599 41.6108C169.952 41.2223 169.471 40.7599 169.157 40.2235C168.861 39.6685 168.713 38.9749 168.713 38.1425C168.713 36.6442 169.305 35.5343 170.488 34.8129C171.672 34.073 173.291 33.7031 175.344 33.7031C176.324 33.7031 177.379 33.8141 178.507 34.036C179.654 34.2395 180.505 34.517 181.06 34.8684V38.7252C180.486 38.3552 179.719 38.0407 178.757 37.7818C177.795 37.5043 176.916 37.3656 176.121 37.3656C175.03 37.3656 174.484 37.5506 174.484 37.9205C174.484 38.087 174.613 38.2257 174.872 38.3367C175.15 38.4477 175.622 38.5772 176.287 38.7252L177.453 39.0026C178.655 39.3171 179.58 39.6778 180.227 40.0847C180.875 40.4917 181.328 40.9726 181.587 41.5275C181.846 42.064 181.975 42.7391 181.975 43.553C181.975 44.8663 181.393 45.9114 180.227 46.6883C179.081 47.4652 177.425 47.8537 175.261 47.8537ZM153.444 26.9329H158.993V47.4374H153.444V26.9329ZM140.73 26.9329H135.181V47.4374H140.73V41.7771L145.419 47.4374H151.773L146.057 40.5285L151.024 34.1191H144.67L140.73 39.2245V26.9329ZM123.432 47.8537C121.73 47.8537 120.361 47.4652 119.325 46.6883C118.308 45.893 117.799 44.7646 117.799 43.3033C117.799 41.805 118.299 40.6674 119.298 39.8905C120.297 39.0951 121.749 38.6974 123.654 38.6974C124.338 38.6974 125.032 38.7714 125.735 38.9194C126.438 39.0674 127.03 39.2523 127.511 39.4743V39.2246C127.511 38.6142 127.205 38.1517 126.595 37.8373C126.003 37.5228 125.171 37.3656 124.098 37.3656C122.488 37.3656 121.009 37.6893 119.658 38.3367V34.6742C120.269 34.3782 121.064 34.147 122.045 33.9805C123.025 33.7956 124.07 33.7031 125.18 33.7031C127.751 33.7031 129.712 34.1933 131.062 35.1736C132.412 36.154 133.088 37.5413 133.088 39.3356V47.4375H127.844V46.3831C127.4 46.8271 126.789 47.1785 126.012 47.4375C125.235 47.715 124.375 47.8537 123.432 47.8537ZM125.152 44.6351C125.652 44.6351 126.114 44.5426 126.539 44.3577C126.965 44.1727 127.289 43.9322 127.511 43.6363V42.6096C126.826 42.1657 126.049 41.9437 125.18 41.9437C124.662 41.9437 124.255 42.064 123.959 42.3044C123.682 42.5449 123.543 42.8779 123.543 43.3033C123.543 43.7102 123.682 44.0339 123.959 44.2744C124.236 44.5149 124.634 44.6351 125.152 44.6351ZM103.41 46.0224C104.908 47.2433 106.998 47.8537 109.681 47.8537C110.79 47.8537 111.872 47.7612 112.927 47.5762C113.981 47.4097 114.86 47.1785 115.563 46.8826V43.4143C114.915 43.6732 114.12 43.8767 113.177 44.0247C112.252 44.1542 111.345 44.2189 110.457 44.2189C108.219 44.2189 106.878 43.627 106.434 42.4432H116.7V40.6397C116.7 39.3263 116.404 38.1425 115.812 37.0881C115.221 36.0338 114.342 35.2106 113.177 34.6187C112.03 34.0083 110.642 33.7031 109.015 33.7031C106.48 33.7031 104.538 34.3412 103.188 35.6176C101.838 36.8939 101.162 38.6327 101.162 40.8339C101.162 43.0721 101.912 44.8016 103.41 46.0224ZM110.679 37.865C111.105 38.1795 111.364 38.6327 111.456 39.2246H106.434C106.527 38.6512 106.776 38.198 107.183 37.865C107.609 37.5321 108.191 37.3656 108.931 37.3656C109.671 37.3656 110.254 37.5321 110.679 37.865ZM83.1566 34.1193H88.5116V35.3401C89.0666 34.8222 89.7325 34.4245 90.5094 34.147C91.2863 33.8511 92.1094 33.7031 92.9788 33.7031C94.3846 33.7031 95.6239 33.999 96.6968 34.591C97.7696 35.1644 98.5928 35.9875 99.1662 37.0604C99.7581 38.1332 100.054 39.3726 100.054 40.7784C100.054 42.1657 99.7581 43.3958 99.1662 44.4686C98.5928 45.5415 97.7696 46.3739 96.6968 46.9658C95.6239 47.5577 94.3846 47.8537 92.9788 47.8537C92.1464 47.8537 91.351 47.7242 90.5926 47.4652C89.8342 47.2248 89.2053 46.9011 88.7059 46.4941V53.5139H83.1566V34.1193ZM91.4805 43.553C92.3499 43.553 93.0343 43.3125 93.5337 42.8316C94.0516 42.3322 94.3106 41.6385 94.3106 40.7506C94.3106 39.8813 94.0516 39.2061 93.5337 38.7252C93.0343 38.2442 92.3499 38.0038 91.4805 38.0038C90.8516 38.0038 90.2874 38.161 89.788 38.4754C89.307 38.7714 88.9463 39.1783 88.7059 39.6963V41.8605C88.9463 42.3784 89.307 42.7946 89.788 43.1091C90.2874 43.405 90.8516 43.553 91.4805 43.553ZM69.7213 47.4655C70.9791 47.7244 72.2277 47.8539 73.467 47.8539C76.1492 47.8539 78.1562 47.336 79.488 46.3001C80.8198 45.2642 81.4857 43.8307 81.4857 41.9994C81.4857 40.9451 81.3285 40.0757 81.014 39.3913C80.6996 38.6884 80.1816 38.078 79.4602 37.56C78.7573 37.0236 77.7492 36.4872 76.4359 35.9507L75.8255 35.701C74.7156 35.2571 73.9572 34.9149 73.5503 34.6744C73.1618 34.4154 72.9676 34.0825 72.9676 33.6755C72.9676 33.2686 73.1896 32.9634 73.6335 32.7599C74.0775 32.5379 74.6694 32.427 75.4093 32.427C77.0925 32.427 78.7388 32.8709 80.3481 33.7588V28.8477C79.4602 28.4222 78.5446 28.117 77.6012 27.9321C76.6579 27.7286 75.5758 27.6269 74.3549 27.6269C72.8566 27.6269 71.534 27.8766 70.3872 28.376C69.2403 28.8754 68.3432 29.5783 67.6958 30.4847C67.0669 31.3726 66.7524 32.39 66.7524 33.5368C66.7524 34.9056 67.1501 36.0525 67.9455 36.9774C68.7594 37.9022 70.0635 38.7531 71.8577 39.53C72.7826 39.937 73.4578 40.2514 73.8832 40.4734C74.3087 40.6769 74.6231 40.8988 74.8266 41.1393C75.0486 41.3613 75.1596 41.6295 75.1596 41.9439C75.1596 42.7023 74.4474 43.0815 73.0231 43.0815C72.0427 43.0815 70.9884 42.9428 69.86 42.6653C68.7502 42.3879 67.6866 41.9717 66.6692 41.4168V46.4943C67.4461 46.9013 68.4634 47.225 69.7213 47.4655Z" fill="white"/>
<defs>
<clipPath id="clip0_169_783">
<rect width="55.2758" height="65.0304" fill="white" transform="translate(0 3)"/>
</clipPath>
</defs>
</svg>
