<svg width="24" height="24" viewBox="0 0 24 24" fill="none" xmlns="http://www.w3.org/2000/svg">
<path d="M16.114 9.29079C16.666 8.73879 17.214 7.45079 14.914 9.01479C11.646 11.2698 8.42504 13.3868 8.42504 13.3868C8.09348 13.5367 7.73503 13.6181 7.37124 13.626C7.00744 13.6339 6.6458 13.5682 6.30804 13.4328C4.92804 13.0188 3.31704 12.4668 3.31704 12.4668C3.31704 12.4668 2.21704 11.7758 4.10004 11.0398C4.10004 11.0398 12.061 7.77279 14.822 6.62179C15.88 6.16179 19.469 4.68979 19.469 4.68979C19.469 4.68979 21.126 4.04479 20.988 5.60979C20.942 6.25379 20.574 8.50979 20.206 10.9478C19.653 14.3988 19.055 18.1728 19.055 18.1728C19.055 18.1728 18.963 19.2308 18.181 19.4148C17.3439 19.4006 16.5351 19.1094 15.881 18.5868C15.697 18.4488 12.43 16.3778 11.233 15.3658C11.1113 15.2833 11.0124 15.1714 10.9455 15.0404C10.8786 14.9094 10.8459 14.7636 10.8505 14.6166C10.8551 14.4696 10.8968 14.3262 10.9717 14.1996C11.0467 14.0731 11.1524 13.9675 11.279 13.8928C12.939 12.3748 14.918 10.4878 16.114 9.29079Z" fill="white"/>
</svg>
